<?xml version="1.0" encoding="UTF-8"?>
<!DOCTYPE svg PUBLIC "-//W3C//DTD SVG 1.1//EN" "http://www.w3.org/Graphics/SVG/1.1/DTD/svg11.dtd">
<!-- Creator: CorelDRAW X5 -->
<svg xmlns="http://www.w3.org/2000/svg" xml:space="preserve" width="78.232mm" height="83.82mm" style="shape-rendering:geometricPrecision; text-rendering:geometricPrecision; image-rendering:optimizeQuality; fill-rule:evenodd; clip-rule:evenodd"
viewBox="0 0 7823 8382"
 xmlns:xlink="http://www.w3.org/1999/xlink"
 xmlns:svg="http://www.w3.org/2000/svg">
 <defs>
  <style type="text/css">
   <![CDATA[
    .fil0 {fill:#231F1F;fill-rule:nonzero}
    .fil1 {fill:#747072;fill-rule:nonzero}
    .fil3 {fill:#B1B6BA;fill-rule:nonzero}
    .fil2 {fill:#E41836;fill-rule:nonzero}
   ]]>
  </style>
 </defs>
 <g id="Layer_x0020_1">
  <metadata id="CorelCorpID_0Corel-Layer"/>
 </g>
 <g id="svg2">
  <metadata id="CorelCorpID_1Corel-Layer"/>
  <path class="fil0" d="M7736 10c-47,13 -29,-16 -186,289 -262,506 -256,496 -336,560 -59,47 -233,97 -338,97 -27,0 -54,55 291,-594 61,-115 110,-209 109,-209 -3,0 -316,106 -430,146 -53,19 -112,39 -130,45 -18,6 -78,27 -134,47 -56,20 -180,65 -276,99 -339,122 -563,208 -577,221 -7,8 -45,74 -83,147 -38,74 -108,205 -154,292l-85 158 -63 22c-297,105 -474,203 -704,391 -533,436 -1116,1112 -1779,2062 -108,154 -471,700 -520,779 -12,19 -73,117 -137,218 -194,307 -502,822 -709,1187 -48,85 -103,181 -122,215 -281,494 -675,1239 -970,1835l-124 250 -112 -4 -112 -4 -28 56 -28 56 153 0c84,0 164,2 176,4l23 4 221 -441c269,-536 241,-488 295,-500 297,-64 417,-73 987,-74 448,-1 515,1 665,16 91,9 196,19 233,21 37,3 126,16 199,29 155,29 288,38 343,24 46,-12 53,-7 28,19 -24,26 -75,42 -169,55l-76 10 41 40c141,136 324,197 611,202 176,3 299,37 406,112l23 16 -5 -64c-15,-179 52,-321 154,-329 104,-8 190,-74 240,-183 51,-112 60,-126 106,-153 71,-43 136,-60 314,-80l36 -4 -4 -65c-6,-84 -39,-137 -113,-183 -30,-18 -31,-16 43,-71 195,-145 318,-324 355,-518 20,-105 22,-99 -32,-74 -74,35 -119,23 -75,-20 24,-23 65,-46 201,-110 122,-58 184,-134 220,-270 13,-49 40,-301 33,-307 -2,-2 -71,27 -152,66 -198,94 -178,97 -295,-49 -189,-235 -234,-262 -443,-262l-55 0 -23 -52c-22,-50 -25,-52 -70,-69 -128,-48 -396,-72 -506,-46 -45,11 -306,9 -295,-2 3,-3 26,-9 51,-14 392,-77 555,-145 623,-260 13,-23 25,-34 32,-31 106,41 928,112 1247,108 212,-3 235,3 244,57 9,55 10,56 86,34 320,-91 373,-235 209,-570 -47,-95 -52,-91 81,-62 60,13 111,24 115,24 6,0 -27,-63 -90,-170 -33,-56 -34,-61 -21,-69 105,-62 165,-117 308,-288 206,-246 214,-252 326,-227 93,20 89,22 77,-50 -16,-94 -72,-175 -153,-223 -53,-31 -38,-56 42,-71 219,-40 416,-277 462,-558 7,-41 14,-85 16,-97l4 -22 -58 24c-32,13 -59,24 -60,24 -15,0 18,-34 147,-154 158,-147 173,-166 217,-275 51,-128 126,-393 109,-386 -5,2 -92,42 -192,89 -552,257 -877,335 -1410,339 -146,1 -151,1 -186,-19 -354,-197 -1231,-161 -1730,71 -125,58 -118,49 141,-196 507,-479 702,-583 1512,-804 242,-66 752,-175 1086,-231 266,-45 304,-73 431,-320 36,-69 133,-258 217,-419 174,-336 174,-337 63,-307zm-71 2013l0 0c-10,30 -34,94 -53,142l-34 88 -168 167c-178,177 -211,222 -211,286 0,42 36,45 125,11 36,-14 -17,141 -78,229 -81,117 -207,208 -315,226 -62,10 -155,91 -208,181 -24,41 -22,47 11,30 59,-31 131,-8 193,61 44,49 46,58 13,51 -64,-13 -154,62 -330,273 -198,238 -291,301 -391,265 -38,-14 4,70 87,171 33,41 31,47 -9,30 -55,-23 -132,-37 -155,-29 -33,12 -27,34 51,200 136,289 132,341 -36,435 -77,43 -86,44 -99,14 -28,-63 -84,-73 -451,-77 -397,-4 -925,-61 -1292,-138 -68,-14 -71,-13 -58,19 14,33 46,62 93,83l39 17 -35 36c-56,58 -134,89 -384,158 -173,47 -190,49 -409,52 -232,2 -313,11 -631,70 -96,18 -110,17 -89,-7 78,-88 613,-905 732,-1117 251,-448 483,-1057 532,-1394l10 -71 49 -32c285,-185 659,-274 1146,-274 423,0 653,69 889,266 27,22 49,40 51,39 3,-3 -56,-113 -72,-134 -21,-28 -27,-27 190,-34 347,-11 599,-63 938,-191 117,-44 346,-144 360,-157 18,-17 19,5 1,55zm-3644 511l0 0c0,131 -211,743 -370,1071 -102,211 -255,484 -335,599 -8,11 -86,128 -172,260 -331,501 -490,727 -670,952 -219,274 -617,746 -1073,1272 -371,428 -420,484 -424,480 -5,-5 320,-603 496,-914 340,-599 610,-1052 902,-1510 517,-814 1004,-1489 1453,-2014 192,-225 195,-227 195,-196zm1009 434l0 0c-117,27 -320,138 -320,175 0,85 -167,418 -315,628 -60,86 -180,273 -177,277 1,1 21,-2 46,-6 24,-4 81,-11 126,-16 45,-5 101,-14 126,-20 110,-27 161,-30 341,-16 95,7 193,14 218,15 56,3 176,-7 273,-24 83,-14 140,-9 224,20 34,12 47,13 50,6 2,-5 15,-59 28,-119 94,-411 241,-711 407,-827 42,-30 70,-61 62,-69 -2,-2 -30,6 -63,16 -180,57 -426,49 -632,-21 -92,-31 -299,-42 -393,-20zm-1558 2140l0 0c355,57 469,64 606,36 138,-28 365,-4 497,52l31 13 -48 91c-239,453 -259,493 -242,476 6,-7 92,-116 189,-242l178 -230 85 4c141,7 181,33 323,208 176,218 197,225 358,131l85 -50 3 25c3,32 -19,142 -40,198 -30,80 -64,113 -174,168 -144,71 -224,141 -272,236 -31,61 10,81 101,50 50,-17 51,-16 25,65 -49,153 -136,258 -332,401 -96,70 -120,91 -151,133 -29,39 -25,46 19,36 99,-23 179,12 197,84 5,20 3,22 -26,27 -239,37 -340,98 -395,237 -47,120 -104,168 -197,169 -67,0 -75,5 -138,87 -56,73 -79,129 -79,199 0,32 -1,59 -1,59 -1,0 -17,-9 -37,-20 -72,-40 -149,-53 -330,-56 -199,-3 -320,-28 -436,-89l-35 -18 49 -13c73,-20 118,-67 181,-187 28,-53 47,-95 43,-93 -4,2 -42,20 -84,41 -135,67 -212,75 -360,40 -241,-58 -636,-101 -893,-97 -71,1 -296,2 -498,3 -376,1 -424,4 -616,37 -95,16 -99,16 -76,-10 31,-35 349,-401 579,-667 456,-528 835,-979 1021,-1215 186,-236 153,-206 268,-245 260,-88 414,-106 625,-72zm-196 701l0 0c-70,13 -72,16 -188,188 -120,178 -152,218 -403,489l-165 178 161 5c169,5 201,8 583,48 325,34 457,79 706,240 17,11 19,7 71,-87 152,-275 313,-510 431,-630 54,-55 98,-99 97,-100 0,0 -28,-2 -62,-4 -61,-4 -107,-16 -198,-55 -27,-11 -71,-23 -98,-26l-49 -5 48 -93c27,-51 46,-95 43,-98 -3,-3 -139,-6 -303,-6 -257,0 -305,-2 -354,-15 -114,-29 -255,-42 -320,-30z"/>
  <path class="fil1" d="M7650 93c-7,16 -12,28 -10,28 6,0 30,-50 26,-53 -2,-2 -9,10 -17,25zm-399 109l0 0c-11,22 -19,41 -16,41 2,0 13,-18 25,-41 11,-22 19,-41 16,-41 -2,0 -13,18 -25,41zm332 16l0 0c-11,22 -19,41 -16,41 2,0 13,-18 25,-41 11,-22 19,-41 16,-41 -2,0 -13,18 -25,41zm113 49l0 0c-7,13 -11,24 -9,24 2,0 10,-11 17,-24 7,-13 11,-24 9,-24 -2,0 -10,11 -17,24zm-160 43l0 0c-12,23 -21,43 -19,44 1,1 13,-16 25,-38 12,-23 21,-42 19,-44 -2,-2 -13,16 -25,38zm-355 22l0 0c-13,27 -23,49 -21,49 2,0 15,-22 29,-49 14,-27 23,-49 21,-49 -2,0 -15,22 -29,49zm272 138l0 0c-25,49 -43,89 -41,89 2,0 24,-40 49,-89 25,-49 43,-89 41,-89 -2,0 -24,40 -49,89zm-340 -8l0 0c-16,31 -27,57 -25,57 2,0 17,-26 33,-57 16,-31 27,-57 25,-57 -2,0 -17,26 -33,57zm466 32l0 0c-9,18 -15,32 -12,32 2,0 11,-15 21,-32 9,-18 15,-32 12,-32 -2,0 -11,15 -21,32zm-535 97l0 0c-18,36 -31,65 -29,65 2,0 19,-29 37,-65 18,-36 31,-65 29,-65 -2,0 -19,29 -37,65zm295 98l0 0c-21,41 -58,96 -82,124l-44 50 48 -49c41,-42 136,-198 121,-198 -2,0 -21,33 -42,74zm131 15l0 0c-7,13 -11,24 -9,24 2,0 10,-11 17,-24 7,-13 11,-24 9,-24 -2,0 -10,11 -17,24zm-502 32l0 0c-11,22 -19,41 -16,41 2,0 13,-18 25,-41 11,-22 19,-41 16,-41 -2,0 -13,18 -25,41zm-1289 49l0 0c-11,22 -19,41 -16,41 2,0 13,-18 25,-41 11,-22 19,-41 16,-41 -2,0 -13,18 -25,41zm1224 73l0 0c-11,22 -19,41 -16,41 2,0 13,-18 25,-41 11,-22 19,-41 16,-41 -2,0 -13,18 -25,41zm259 25l0 0c-22,13 -38,23 -34,23 10,0 69,-31 75,-40 6,-10 8,-11 -40,17zm-1563 54l0 0c-20,39 -35,72 -33,74 2,2 20,-30 40,-71 20,-41 35,-74 33,-74 -2,0 -20,32 -40,71zm1397 -6l0 0c-27,6 -27,6 -4,6 13,0 35,-3 49,-6 34,-9 -4,-9 -45,0zm-1471 146l0 0c-11,22 -19,41 -16,41 2,0 13,-18 25,-41 11,-22 19,-41 16,-41 -2,0 -13,18 -25,41zm-65 122l0 0c-11,22 -19,41 -16,41 2,0 13,-18 25,-41 11,-22 19,-41 16,-41 -2,0 -13,18 -25,41zm-136 131l0 0c-26,9 -46,18 -44,20 4,4 103,-29 103,-34 0,-5 -9,-3 -59,14zm-123 47l0 0c-18,8 -29,15 -24,15 11,0 75,-30 65,-30 -4,0 -23,7 -41,15zm-160 70l0 0c-30,15 -55,30 -55,32 0,4 113,-50 121,-58 11,-10 -19,1 -66,26zm-89 49l0 0c-30,16 -28,23 2,8 13,-7 24,-14 24,-16 0,-5 -1,-5 -26,9zm-96 61l0 0c-18,16 -18,16 -1,8 10,-5 20,-12 23,-17 8,-13 -1,-9 -21,9zm-76 53l0 0 -24 21 26 -17c14,-10 26,-19 26,-21 0,-6 -3,-4 -28,17zm-109 81l0 0c-25,20 -52,45 -61,54 -9,9 12,-6 47,-34 55,-45 69,-57 61,-57 -1,0 -22,17 -47,37zm-171 147l0 0 -28 30 30 -28c28,-26 34,-33 28,-33 -1,0 -15,14 -30,30zm-81 73l0 0 -44 47 47 -44c26,-24 47,-45 47,-47 0,-6 -8,1 -49,44zm158 45l0 0 -24 26 26 -24c14,-13 26,-25 26,-26 0,-6 -7,-1 -29,24zm-356 146l0 0 -130 132 132 -130c122,-120 135,-134 130,-134 -1,0 -60,59 -132,132zm272 -71l0 0c-20,20 -34,36 -32,36 2,0 20,-16 40,-36 20,-20 34,-36 32,-36 -2,0 -20,16 -40,36zm594 67l0 0c12,2 31,2 41,0 10,-2 0,-3 -22,-3 -22,0 -30,2 -18,4zm381 0l0 0c12,2 32,2 45,0 12,-2 2,-3 -22,-3 -25,0 -35,2 -22,3zm-486 8l0 0c12,2 31,2 41,0 10,-2 0,-3 -22,-3 -22,0 -30,2 -18,4zm583 0l0 0c8,2 21,2 28,0 8,-2 1,-4 -14,-4 -16,0 -22,2 -14,4zm-1260 106l0 0c-102,102 -113,115 -94,115 5,0 7,-3 4,-6 -3,-3 41,-52 98,-109 57,-57 102,-104 99,-104 -2,0 -51,47 -107,103zm592 -98l0 0c10,2 25,2 32,0 8,-2 -1,-4 -18,-4 -18,0 -24,2 -14,4zm1673 105l0 0c8,2 21,2 28,0 8,-2 1,-4 -14,-4 -16,0 -22,2 -14,4zm-105 8l0 0c12,2 32,2 45,0 12,-2 2,-3 -22,-3 -25,0 -35,2 -22,3zm-218 8l0 0c30,2 78,2 105,0 28,-2 3,-3 -55,-3 -58,0 -81,1 -50,3zm-2223 73l0 0 -44 47 47 -44c26,-24 47,-45 47,-47 0,-6 -8,1 -49,44zm284 -34l0 0c-11,6 -17,12 -12,12 4,0 17,-5 28,-12 11,-6 17,-12 12,-12 -4,0 -17,5 -28,12zm3294 87l0 0 -32 34 34 -32c32,-30 38,-37 32,-37 -1,0 -17,16 -34,34zm-3676 53l0 0c-42,44 -160,181 -254,294 -35,42 -69,83 -76,91 -7,8 -10,14 -8,14 2,0 37,-39 76,-87 40,-48 124,-146 188,-219 117,-133 142,-164 74,-93zm3571 45l0 0 -32 34 34 -32c32,-30 38,-37 32,-37 -1,0 -17,16 -34,34zm-3498 77l0 0c-10,13 -10,13 2,4 12,-9 14,-8 17,8 3,17 4,16 5,-4 1,-26 -8,-29 -24,-8zm3384 28l0 0 -40 43 43 -40c40,-37 46,-45 40,-45 -1,0 -20,19 -43,43zm-3437 32l0 0 -24 26 26 -24c25,-22 30,-29 24,-29 -1,0 -13,12 -26,26zm-105 122l0 0 -24 26 26 -24c14,-13 26,-25 26,-26 0,-6 -7,-1 -29,24zm3576 56l0 0c-7,34 0,40 7,7 3,-14 4,-27 2,-29 -2,-2 -6,8 -9,22zm-3892 114l0 0c-35,40 -47,57 -38,52 5,-3 21,-20 35,-38 27,-34 30,-45 3,-14zm-97 122l0 0c-63,79 -66,83 -56,77 10,-6 112,-136 106,-136 -2,0 -25,26 -50,59zm3806 91l0 0c-20,20 -34,36 -32,36 2,0 20,-16 40,-36 20,-20 34,-36 32,-36 -2,0 -20,16 -40,36zm-3898 28l0 0c-14,18 -24,32 -22,32 2,0 16,-15 30,-32 14,-18 24,-32 22,-32 -2,0 -16,15 -30,32zm-42 55l0 0c-23,28 -33,43 -29,43 2,0 14,-13 26,-28 22,-29 25,-40 3,-14zm-129 172l0 0c-10,13 -15,24 -13,24 2,0 12,-11 21,-24 10,-13 15,-24 13,-24 -2,0 -12,11 -21,24zm-49 65l0 0c-10,13 -15,24 -13,24 2,0 12,-11 21,-24 10,-13 15,-24 13,-24 -2,0 -12,11 -21,24zm601 37l0 0c-14,30 -11,36 4,9 7,-13 11,-25 9,-26 -2,-2 -8,6 -13,17zm-631 6l0 0c-35,46 -54,73 -47,69 10,-6 63,-79 58,-79 -2,0 -7,5 -11,10zm-75 103l0 0c-10,13 -15,24 -13,24 2,0 12,-11 21,-24 10,-13 15,-24 13,-24 -2,0 -12,11 -21,24zm4076 31l0 0c-3,16 -1,24 3,19 4,-4 6,-16 4,-27 -3,-16 -4,-15 -7,7zm-4134 52l0 0c-24,31 -33,47 -29,47 2,0 15,-16 29,-36 30,-42 29,-50 -1,-10zm-86 122l0 0c-50,69 -74,109 -41,67 33,-41 96,-134 93,-134 -2,0 -25,30 -52,67zm-91 132l0 0c-14,20 -23,36 -21,36 2,0 15,-16 29,-36 14,-20 23,-36 21,-36 -2,0 -15,16 -29,36zm3801 43l0 0 -28 30 30 -28c28,-26 34,-33 28,-33 -1,0 -15,14 -30,30zm-3839 12l0 0c-16,20 -21,33 -12,27 10,-6 29,-37 23,-37 -2,0 -7,5 -11,10zm3762 65l0 0 -24 26 26 -24c14,-13 26,-25 26,-26 0,-6 -7,-1 -29,24zm-3852 69l0 0c-53,79 -65,100 -53,87 13,-13 109,-158 104,-158 -2,0 -25,32 -51,71zm-81 122l0 0c-21,30 -28,43 -24,43 2,0 13,-15 25,-32 24,-36 23,-45 -1,-10zm-110 168l0 0c-7,11 -19,30 -26,43l-13 22 16 -20c19,-23 45,-65 40,-65 -2,0 -9,9 -17,20zm-117 180l0 0c-24,35 -30,46 -20,40 9,-6 44,-62 39,-62 -2,0 -10,10 -19,22zm-52 81l0 0c-25,38 -41,67 -36,67 2,0 11,-12 19,-27 9,-15 22,-37 30,-49 8,-12 12,-22 10,-22 -2,0 -13,14 -24,30zm4097 30l0 0c0,22 2,30 4,18 2,-12 2,-31 0,-41 -2,-10 -3,0 -3,22zm-3390 12l0 0c-10,13 -15,24 -13,24 2,0 12,-11 21,-24 10,-13 15,-24 13,-24 -2,0 -12,11 -21,24zm-772 63l0 0c-29,47 -31,51 -27,51 2,0 15,-18 29,-41 14,-22 23,-41 21,-41 -2,0 -12,14 -23,30zm-49 79l0 0c-7,11 -19,30 -26,43l-13 22 16 -20c19,-23 45,-65 40,-65 -2,0 -9,9 -17,20zm2244 30l0 0 -32 34 34 -32c19,-18 34,-33 34,-34 0,-6 -7,0 -37,32zm687 -13l0 0c8,2 21,2 28,0 8,-2 1,-4 -14,-4 -16,0 -22,2 -14,4zm93 8l0 0c10,2 25,2 32,0 8,-2 -1,-4 -18,-4 -18,0 -24,2 -14,4zm97 8l0 0c10,2 26,2 36,0 10,-2 2,-4 -18,-4 -20,0 -28,2 -18,4zm118 8l0 0c17,2 44,2 61,0 17,-2 3,-3 -30,-3 -33,0 -47,1 -30,3zm369 0l0 0c19,2 50,2 69,0 19,-2 3,-3 -34,-3 -38,0 -53,1 -34,3zm-3728 150l0 0c-18,27 -34,60 -25,51 11,-12 45,-69 40,-69 -2,0 -9,8 -16,18zm2119 36l0 0c12,2 31,2 41,0 10,-2 0,-3 -22,-3 -22,0 -30,2 -18,4zm142 8l0 0c10,2 26,2 36,0 10,-2 2,-4 -18,-4 -20,0 -28,2 -18,4zm93 8l0 0c8,2 21,2 28,0 8,-2 1,-4 -14,-4 -16,0 -22,2 -14,4zm-1696 27l0 0c-10,13 -15,24 -13,24 2,0 12,-11 21,-24 10,-13 15,-24 13,-24 -2,0 -12,11 -21,24zm1295 -19l0 0c10,2 25,2 32,0 8,-2 -1,-4 -18,-4 -18,0 -24,2 -14,4zm-1997 13l0 0c-28,47 -30,51 -16,34 16,-20 31,-45 25,-45 -2,0 -7,5 -10,10zm-49 81l0 0c-28,47 -30,51 -16,34 16,-20 31,-45 25,-45 -2,0 -7,5 -10,10zm2868 68l0 0c8,2 21,2 28,0 8,-2 1,-4 -14,-4 -16,0 -22,2 -14,4zm-2937 45l0 0c-5,10 -15,27 -21,39 -11,19 -11,20 2,4 16,-19 39,-61 33,-61 -2,0 -8,8 -14,18zm-49 81l0 0c-5,10 -15,27 -21,39 -11,19 -11,20 2,4 16,-19 39,-61 33,-61 -2,0 -8,8 -14,18zm3243 10l0 0c15,16 29,28 32,28 2,0 -8,-13 -23,-28 -15,-16 -29,-28 -32,-28 -2,0 8,13 23,28zm-3291 71l0 0c-5,10 -15,27 -21,38 -11,19 -11,20 2,4 16,-19 39,-61 33,-61 -2,0 -8,8 -14,18zm3818 31l0 0c-10,7 -9,8 3,4 9,-3 18,-1 22,5 5,8 7,7 7,-4 0,-16 -14,-18 -32,-5zm18 76l0 0c0,18 2,24 4,14 2,-10 2,-25 0,-32 -2,-8 -4,1 -4,18zm-3951 87l0 0c-17,27 -42,76 -33,67 11,-11 52,-85 48,-85 -2,0 -9,8 -15,18zm3943 10l0 0c0,18 2,24 4,14 2,-10 2,-25 0,-32 -2,-8 -4,1 -4,18zm-3999 87l0 0c-18,27 -34,60 -25,51 11,-12 45,-69 40,-69 -2,0 -9,8 -16,18zm-49 85l0 0c-2,3 -14,24 -26,47 -13,22 -19,37 -14,32 12,-11 54,-85 48,-85 -2,0 -6,3 -8,6zm-72 126l0 0c-18,28 -42,76 -33,67 11,-11 53,-85 48,-85 -2,0 -9,8 -16,18zm-67 120l0 0c-7,13 -11,24 -9,24 2,0 10,-11 17,-24 7,-13 11,-24 9,-24 -2,0 -10,11 -17,24zm-31 55l0 0c-2,3 -14,24 -26,47 -12,22 -19,37 -14,32 12,-11 54,-85 48,-85 -2,0 -6,3 -8,6zm-79 140l0 0c-9,18 -15,32 -12,32 2,0 11,-15 21,-32 9,-18 15,-32 12,-32 -2,0 -11,15 -21,32zm-27 47l0 0c-40,72 -63,118 -57,111 11,-11 70,-118 64,-118 -2,0 -6,3 -8,6zm-95 172l0 0c-9,18 -15,32 -12,32 2,0 11,-15 21,-32 9,-18 15,-32 12,-32 -2,0 -11,15 -21,32zm-49 89l0 0c-9,18 -15,32 -12,32 2,0 11,-15 21,-32 9,-18 15,-32 12,-32 -2,0 -11,15 -21,32zm3902 99l0 0 -48 51 51 -48c28,-27 51,-49 51,-51 0,-6 -8,1 -53,48zm-3951 -10l0 0c-9,18 -15,32 -12,32 2,0 11,-15 21,-32 9,-18 15,-32 12,-32 -2,0 -11,15 -21,32zm-57 105l0 0c-9,18 -15,32 -12,32 2,0 11,-15 21,-32 9,-18 15,-32 12,-32 -2,0 -11,15 -21,32zm-49 89l0 0c-9,18 -15,32 -12,32 2,0 11,-15 21,-32 9,-18 15,-32 12,-32 -2,0 -11,15 -21,32zm-57 105l0 0c-9,18 -15,32 -12,32 2,0 11,-15 21,-32 9,-18 15,-32 12,-32 -2,0 -11,15 -21,32zm178 47l0 0 -28 30 30 -28c28,-26 34,-33 28,-33 -1,0 -15,14 -30,30zm-243 75l0 0c-14,27 -23,49 -21,49 2,0 15,-22 29,-49 13,-27 23,-49 21,-49 -2,0 -15,22 -29,49zm186 -10l0 0 -28 30 30 -28c28,-26 34,-33 28,-33 -1,0 -15,14 -30,30zm3940 -1l0 0c-1,20 -5,27 -19,29l-18 4 19 1c21,1 29,-13 24,-41 -3,-15 -4,-13 -5,7zm-3988 53l0 0c-15,14 -18,15 -14,4 8,-23 -1,-16 -15,11 -19,36 -11,36 25,-1 33,-34 37,-45 5,-14zm3871 -13l0 0c10,2 25,2 32,0 8,-2 -1,-4 -18,-4 -18,0 -24,2 -14,4zm-4087 116l0 0c-20,40 -35,73 -33,73 2,0 21,-33 41,-73 20,-40 35,-73 33,-73 -2,0 -21,33 -41,73zm-93 178l0 0c-14,27 -23,49 -21,49 2,0 15,-22 29,-49 14,-27 23,-49 21,-49 -2,0 -15,22 -29,49zm837 -43l0 0c8,2 21,2 28,0 8,-2 1,-4 -14,-4 -16,0 -22,2 -14,4zm644 0l0 0c19,2 50,2 69,0 19,-2 3,-3 -34,-3 -38,0 -53,1 -34,3zm-847 8l0 0c12,2 32,2 45,0 12,-2 2,-3 -22,-3 -25,0 -35,2 -22,3zm507 0l0 0c46,1 120,1 166,0 46,-1 8,-3 -83,-3 -91,0 -129,1 -83,3zm502 0l0 0c10,2 26,2 36,0 10,-2 2,-4 -18,-4 -20,0 -28,2 -18,4zm-1106 8l0 0c8,2 21,2 28,0 8,-2 1,-4 -14,-4 -16,0 -22,2 -14,4zm1204 0l0 0c10,2 25,2 32,0 8,-2 -1,-4 -18,-4 -18,0 -24,2 -14,4zm85 8l0 0c8,2 21,2 28,0 8,-2 1,-4 -14,-4 -16,0 -22,2 -14,4zm73 8l0 0c8,2 21,2 28,0 8,-2 1,-4 -14,-4 -16,0 -22,2 -14,4zm118 8l0 0c10,2 26,2 36,0 10,-2 2,-4 -18,-4 -20,0 -28,2 -18,4zm466 65l0 0c12,2 32,2 45,0 12,-2 2,-3 -22,-3 -25,0 -35,2 -22,3zm-93 65l0 0c10,2 25,2 32,0 8,-2 -1,-4 -18,-4 -18,0 -24,2 -14,4zm-2527 140l0 0c-27,54 -47,97 -45,97 2,0 26,-44 53,-97 27,-53 47,-97 45,-97 -2,0 -26,44 -53,97zm2545 -95l0 0c0,1 12,13 26,26l26 24 -24 -26c-22,-25 -29,-30 -29,-24zm-2403 87l0 0c-7,13 -11,24 -9,24 2,0 10,-11 17,-24 7,-13 11,-24 9,-24 -2,0 -10,11 -17,24zm3443 138l0 0c0,33 1,47 3,30 2,-17 2,-44 0,-61 -2,-17 -3,-3 -3,30zm-617 -27l0 0c8,2 21,2 28,0 8,-2 1,-4 -14,-4 -16,0 -22,2 -14,4zm65 8l0 0c12,2 31,2 41,0 10,-2 0,-3 -22,-3 -22,0 -30,2 -18,4zm118 0l0 0c24,2 60,2 81,0 21,-2 2,-3 -43,-3 -45,0 -62,1 -38,3zm-3319 225l0 0c-59,118 -107,217 -107,220 0,3 50,-92 110,-212 60,-120 108,-219 107,-220 -2,-2 -51,94 -110,212zm3605 -179l0 0c11,6 24,12 28,12 4,0 -1,-5 -12,-12 -11,-6 -24,-12 -28,-12 -4,0 1,5 12,12zm137 71l0 0c6,8 14,14 18,14 4,0 7,-6 6,-14 0,-9 -2,-10 -5,-4 -3,9 -7,9 -18,0 -12,-9 -12,-9 -2,4zm-3993 361l0 0c26,2 68,2 93,0 26,-2 5,-3 -47,-3 -51,0 -72,1 -47,3zm-69 114l0 0c46,1 120,1 166,0 46,-1 8,-3 -83,-3 -91,0 -129,1 -83,3z"/>
  <path class="fil2" d="M7664 1968c-14,13 -243,113 -360,157 -339,128 -591,180 -938,191 -216,7 -211,6 -190,34 16,21 75,131 72,134 -1,1 -24,-16 -51,-39 -236,-197 -466,-266 -889,-266 -487,0 -860,89 -1146,274l-49 32 -10 71c-49,336 -281,945 -532,1394 -119,212 -654,1029 -732,1117 -21,24 -7,25 89,7 318,-59 399,-68 631,-70 220,-2 237,-4 409,-52 250,-68 327,-100 384,-158l35 -36 -39 -17c-46,-20 -79,-50 -93,-83 -13,-32 -10,-33 58,-19 367,77 895,134 1292,138 368,4 424,14 451,77 13,30 22,28 99,-14 168,-94 173,-146 36,-435 -78,-166 -84,-188 -51,-200 23,-9 100,6 155,29 40,17 42,11 9,-30 -82,-102 -125,-185 -87,-171 100,36 193,-27 391,-265 176,-211 266,-285 330,-273 33,7 31,-2 -13,-51 -62,-69 -134,-92 -193,-61 -32,17 -35,10 -11,-30 53,-89 146,-170 208,-181 108,-18 234,-108 315,-226 61,-88 113,-243 78,-229 -89,35 -125,32 -125,-11 0,-64 33,-108 211,-286l168 -167 34 -88c66,-170 81,-225 52,-198zm-2240 1021l0 0c206,70 452,78 632,21 33,-11 62,-18 63,-16 8,8 -19,39 -62,69 -165,116 -313,416 -407,827 -14,60 -26,114 -28,119 -3,7 -15,6 -50,-6 -83,-29 -140,-34 -224,-20 -98,16 -218,27 -273,24 -25,-1 -123,-8 -218,-15 -180,-14 -232,-11 -341,16 -25,6 -81,15 -126,20 -45,5 -101,12 -126,16 -24,4 -45,7 -46,6 -4,-3 116,-191 177,-277 148,-210 315,-543 315,-628 0,-23 134,-110 228,-147 127,-50 350,-54 486,-9zm-2258 2113l0 0c-104,15 -202,39 -319,79 -115,39 -82,9 -268,245 -185,236 -564,687 -1021,1215 -230,266 -547,632 -579,667 -23,26 -19,26 76,10 191,-33 240,-36 616,-37 203,0 427,-2 498,-3 256,-4 651,39 893,97 147,36 225,27 360,-40 42,-21 80,-39 84,-41 4,-2 -15,40 -43,93 -63,120 -108,167 -181,187l-49 13 35 18c116,61 237,85 436,89 182,3 259,16 330,56 20,11 37,20 37,20 1,0 1,-26 1,-59 0,-70 23,-126 79,-199 63,-81 71,-86 138,-87 93,-1 150,-49 197,-169 55,-139 156,-200 395,-237 29,-4 31,-6 26,-27 -18,-73 -98,-107 -197,-84 -82,19 -25,-55 132,-169 196,-143 283,-248 332,-401 26,-81 25,-83 -25,-65 -229,78 -88,-157 171,-286 110,-55 144,-87 174,-168 21,-56 43,-166 40,-198l-3 -25 -85 50c-161,94 -182,87 -358,-131 -142,-176 -182,-201 -323,-208l-85 -4 -178 230c-98,126 -183,235 -189,242 -16,17 4,-23 242,-476l48 -91 -31 -13c-132,-56 -359,-80 -497,-52 -137,28 -250,21 -606,-36 -137,-22 -196,-24 -306,-7zm329 717l0 0c25,4 70,14 101,21 49,12 97,14 354,15 163,0 300,3 303,6 3,3 -16,47 -43,98l-48 93 49 5c27,3 71,15 98,26 91,39 136,51 198,55 34,2 62,4 62,4 0,0 -43,45 -97,100 -118,120 -279,355 -431,630 -52,94 -55,97 -71,87 -249,-161 -381,-206 -706,-240 -382,-40 -414,-43 -583,-48l-161 -5 165 -178c251,-271 284,-311 403,-489 74,-111 118,-168 131,-173 56,-22 163,-24 276,-6z"/>
  <path class="fil3" d="M7567 56c-67,21 -158,50 -203,64l-81 26 -26 54c-14,30 -108,209 -209,397 -100,189 -183,346 -183,349 0,16 232,-33 289,-61 108,-53 119,-69 356,-527 39,-76 96,-184 126,-241 30,-57 54,-103 53,-102 -1,0 -56,18 -123,39zm227 33l0 0c-7,13 -11,24 -9,24 2,0 10,-11 17,-24 7,-13 11,-24 9,-24 -2,0 -10,11 -17,24zm-43 85l0 0c-10,20 -16,36 -14,36 5,0 38,-66 35,-70 -2,-2 -11,13 -21,33zm-71 134l0 0c-7,13 -11,24 -9,24 2,0 10,-11 17,-24 7,-13 11,-24 9,-24 -2,0 -10,11 -17,24zm-935 14l0 0c-19,7 -34,14 -32,16 4,4 79,-21 79,-26 0,-5 -9,-3 -47,10zm896 63l0 0c-7,16 -12,28 -10,28 6,0 30,-50 26,-53 -2,-2 -9,10 -17,25zm-1058 -7l0 0c-19,7 -34,14 -32,16 4,4 79,-21 79,-26 0,-5 -9,-3 -47,10zm-484 177l0 0c-20,10 -21,11 -4,7 23,-6 49,-19 36,-19 -4,0 -19,5 -32,12zm-154 57l0 0c-20,10 -21,11 -4,7 23,-6 49,-19 36,-19 -4,0 -19,5 -32,12zm-218 84l0 0c-2,4 -22,13 -43,21 -551,207 -748,299 -886,417 -761,651 -1617,1745 -2632,3363 -529,843 -1235,2073 -1699,2963 -30,58 -69,131 -85,162 -17,31 -59,113 -95,182 -36,69 -98,189 -138,267 -40,78 -77,152 -82,164l-8 22 111 0 111 0 109 -224c213,-436 680,-1321 930,-1764 38,-68 94,-167 124,-220 47,-84 97,-170 207,-361 135,-233 442,-741 546,-904 23,-36 48,-76 55,-89 7,-13 40,-64 72,-113 32,-49 82,-126 110,-170 108,-168 373,-561 472,-702 555,-784 1004,-1324 1452,-1746 378,-356 609,-509 949,-628l99 -35 57 -107c31,-59 78,-147 103,-196 118,-225 151,-285 167,-298 9,-8 13,-14 8,-14 -5,0 -10,3 -13,7zm1726 50l0 0c-7,13 -11,24 -9,24 2,0 10,-11 17,-24 7,-13 11,-24 9,-24 -2,0 -10,11 -17,24zm-35 69l0 0c-10,20 -16,36 -14,36 5,0 38,-66 35,-69 -2,-2 -11,13 -21,33zm-103 139l0 0c-27,25 -38,38 -24,29 23,-16 84,-75 77,-75 -2,0 -25,21 -52,46zm-478 140l0 0c-22,6 -22,6 -4,7 11,0 28,-3 36,-7 20,-9 1,-9 -32,0zm-1005 227l0 0c-10,4 -12,7 -4,7 7,0 19,-3 28,-7 10,-4 12,-7 4,-7 -7,0 -19,3 -28,7zm-677 231l0 0c-11,6 -17,12 -12,12 4,0 17,-5 28,-12 11,-6 17,-12 12,-12 -4,0 -17,5 -28,12zm2647 253l0 0c5,3 11,11 14,18 3,8 5,6 5,-6 0,-12 -4,-18 -14,-18 -9,0 -11,2 -5,6zm-3211 142l0 0 -24 26 26 -24c14,-13 26,-25 26,-26 0,-6 -7,-1 -29,24zm2906 -6l0 0c-11,6 -17,12 -12,12 4,0 17,-5 28,-12 11,-6 17,-12 12,-12 -4,0 -17,5 -28,12zm-2975 67l0 0 -28 30 30 -28c28,-26 34,-33 28,-33 -1,0 -15,14 -30,30zm-133 126l0 0 -65 67 67 -65c62,-60 71,-69 65,-69 -1,0 -31,30 -67,67zm841 -45l0 0c39,1 103,1 142,0 39,-1 7,-3 -71,-3 -78,0 -110,1 -71,3zm-207 8l0 0c10,2 25,2 32,0 8,-2 -1,-4 -18,-4 -18,0 -24,2 -14,4zm-101 8l0 0c8,2 21,2 28,0 8,-2 1,-4 -14,-4 -16,0 -22,2 -14,4zm-81 8l0 0c8,2 21,2 28,0 8,-2 1,-4 -14,-4 -16,0 -22,2 -14,4zm-75 11l0 0c-27,9 2,9 36,0 22,-6 22,-6 4,-6 -11,0 -29,3 -41,6zm2241 0l0 0c-10,4 -12,7 -4,7 7,0 19,-3 28,-7 10,-4 12,-7 4,-7 -7,0 -19,3 -28,7zm-2448 49l0 0c-10,4 -12,7 -4,7 7,0 19,-3 28,-7 10,-4 12,-7 4,-7 -7,0 -19,3 -28,7zm1947 46l0 0c10,2 26,2 36,0 10,-2 2,-4 -18,-4 -20,0 -28,2 -18,4zm-461 13l0 0c4,4 39,5 79,4l72 -2 -79 -4c-43,-2 -76,-1 -72,2zm230 -4l0 0c30,2 81,2 113,0 33,-2 8,-3 -54,-3 -62,0 -89,1 -59,3zm-2048 67l0 0c-13,13 -19,24 -14,24 5,0 10,-4 10,-9 0,-5 5,-6 10,-3 6,3 7,3 4,-1 -3,-4 0,-13 7,-22 22,-25 8,-17 -17,9zm3298 140l0 0 -40 43 43 -40c40,-37 46,-45 40,-45 -1,0 -20,19 -43,43zm-109 101l0 0 -44 47 47 -44c43,-41 50,-49 44,-49 -1,0 -22,21 -47,47zm-3429 16l0 0c-16,18 -17,20 -2,7 17,-14 18,-14 21,4 3,14 4,13 5,-7 1,-32 1,-32 -24,-4zm3437 27l0 0c-10,7 -9,8 3,4 9,-3 19,-1 23,5 6,8 7,8 4,-1 -4,-16 -16,-18 -31,-8zm-3490 34l0 0 -24 26 26 -24c25,-22 30,-29 24,-29 -1,0 -13,12 -26,26zm3299 494l0 0 -24 26 26 -24c14,-13 26,-25 26,-26 0,-6 -7,-1 -29,24zm-174 120l0 0c-16,9 -25,16 -22,16 9,0 54,-23 54,-28 0,-5 0,-5 -32,12zm-3273 45l0 0c-14,30 -11,36 4,9 7,-13 11,-25 9,-26 -2,-2 -8,6 -13,17zm3112 13l0 0c-14,14 -12,19 13,30l22 10 -18 -15c-15,-12 -16,-17 -9,-25 5,-5 8,-10 6,-10 -2,0 -8,4 -14,10zm47 49l0 0c0,2 12,11 26,22 16,12 22,14 15,5 -11,-13 -41,-33 -41,-27zm113 134l0 0c5,9 14,38 20,64 6,26 12,39 12,30 1,-24 -22,-99 -33,-105 -6,-4 -6,0 0,11zm-239 198l0 0 -48 51 51 -48c28,-27 51,-49 51,-51 0,-6 -8,1 -53,48zm-3266 112l0 0c-7,14 -12,27 -10,28 2,2 9,-10 17,-25 17,-35 11,-38 -7,-3zm-56 105l0 0c-7,13 -11,24 -9,24 2,0 10,-11 17,-24 7,-13 11,-24 9,-24 -2,0 -10,11 -17,24zm-560 18l0 0c-13,19 -18,30 -11,25 12,-10 43,-59 37,-59 -2,0 -14,16 -26,34zm3598 89l0 0 -48 51 51 -48c28,-27 51,-49 51,-51 0,-6 -8,1 -53,48zm-3772 164l0 0c-14,20 -23,36 -21,36 2,0 15,-16 29,-36 14,-20 23,-36 21,-36 -2,0 -15,16 -29,36zm579 -10l0 0c-28,47 -30,51 -16,34 16,-20 31,-45 25,-45 -2,0 -7,5 -10,10zm2906 176l0 0c0,4 4,10 9,13 6,3 7,2 4,-3 -3,-5 1,-10 9,-12 11,-3 10,-4 -4,-5 -10,-1 -18,2 -18,7zm158 29l0 0c18,6 40,11 49,11 9,0 -2,-5 -24,-11 -51,-14 -68,-14 -24,1zm-133 16l0 0c0,4 9,25 20,45 11,20 20,33 20,28 0,-4 -9,-25 -20,-45 -11,-20 -20,-33 -20,-28zm-3267 288l0 0c-10,13 -15,24 -13,24 2,0 12,-11 21,-24 10,-13 15,-24 13,-24 -2,0 -12,11 -21,24zm3345 132l0 0 -14 26 16 -19c14,-16 21,-34 14,-33 -1,0 -8,12 -16,26zm-1649 20l0 0c8,2 21,2 28,0 8,-2 1,-4 -14,-4 -16,0 -22,2 -14,4zm1602 41l0 0 -28 30 30 -28c28,-26 34,-33 28,-33 -1,0 -15,14 -30,30zm-1884 12l0 0 -24 26 26 -24c14,-13 26,-25 26,-26 0,-6 -7,-1 -29,24zm704 -4l0 0c12,2 31,2 41,0 10,-2 0,-3 -22,-3 -22,0 -30,2 -18,4zm89 8l0 0c12,2 32,2 45,0 12,-2 2,-3 -22,-3 -25,0 -35,2 -22,3zm101 8l0 0c15,2 36,2 49,0 12,-2 0,-3 -26,-3 -27,0 -37,2 -22,3zm219 8l0 0c50,1 132,1 182,0 50,-1 9,-3 -91,-3 -100,0 -141,1 -91,3zm332 0l0 0c10,2 25,2 32,0 8,-2 -1,-4 -18,-4 -18,0 -24,2 -14,4zm-3585 21l0 0c-28,47 -30,51 -16,34 16,-20 31,-45 25,-45 -2,0 -7,5 -10,10zm499 87l0 0c-10,13 -15,24 -13,24 2,0 12,-11 21,-24 10,-13 15,-24 13,-24 -2,0 -12,11 -21,24zm1240 32l0 0c-16,5 -17,7 -4,7 9,0 24,-3 32,-7 21,-9 -1,-9 -28,0zm217 38l0 0c10,2 25,2 32,0 8,-2 -1,-4 -18,-4 -18,0 -24,2 -14,4zm-433 13l0 0c-2,3 56,6 128,5 150,-1 143,-5 -16,-9 -60,-1 -110,0 -112,4zm-1694 105l0 0c-28,47 -30,51 -16,34 16,-20 31,-45 25,-45 -2,0 -7,5 -10,10zm2637 61l0 0c15,2 36,2 49,0 12,-2 0,-3 -26,-3 -27,0 -37,2 -22,3zm196 24l0 0c7,2 19,8 28,12 16,7 16,7 0,-5 -9,-7 -21,-12 -28,-12 -11,1 -11,1 0,5zm101 75l0 0c26,27 50,49 52,49 2,0 -18,-22 -44,-49 -26,-27 -50,-49 -52,-49 -2,0 18,22 44,49zm590 199l0 0c0,22 2,30 4,18 2,-12 2,-31 0,-41 -2,-10 -3,0 -3,22zm-156 4l0 0c-16,9 -25,16 -20,16 4,0 21,-7 36,-16 16,-9 25,-16 20,-16 -4,0 -21,7 -36,16zm-3133 26l0 0c-24,27 -38,47 -34,47 2,0 15,-15 30,-32 28,-35 31,-45 4,-14zm2918 28l0 0c16,18 31,26 45,25l21 -1 -20 -4c-11,-2 -31,-13 -45,-25l-24 -22 24 26zm94 2l0 0c-16,9 -25,16 -20,16 4,0 21,-7 36,-16 16,-9 25,-16 20,-16 -4,0 -21,7 -36,16zm270 32l0 0c0,25 2,35 3,22 2,-12 2,-32 0,-45 -2,-12 -3,-2 -3,22zm-9 73l0 0c-1,11 -3,29 -5,41l-4 20 9 -20c5,-11 7,-29 5,-41l-3 -21 -1 20zm-3555 205l0 0 -24 26 26 -24c25,-22 30,-29 24,-29 -1,0 -13,12 -26,26zm3433 83l0 0c-20,20 -34,36 -32,36 2,0 20,-16 40,-36 20,-20 34,-36 32,-36 -2,0 -20,16 -40,36zm-178 105l0 0c-11,6 -17,12 -12,12 4,0 17,-5 28,-12 11,-6 17,-12 12,-12 -4,0 -17,5 -28,12zm-3773 45l0 0c-7,13 -11,24 -9,24 2,0 10,-11 17,-24 7,-13 11,-24 9,-24 -2,0 -10,11 -17,24zm-178 316l0 0c-7,13 -11,24 -9,24 2,0 10,-11 17,-24 7,-13 11,-24 9,-24 -2,0 -10,11 -17,24zm186 51l0 0 -24 26 26 -24c25,-22 30,-29 24,-29 -1,0 -13,12 -26,26zm-226 22l0 0c-7,13 -11,24 -9,24 2,0 10,-11 17,-24 7,-13 11,-24 9,-24 -2,0 -10,11 -17,24zm3846 16l0 0c-10,13 -15,24 -13,24 2,0 12,-11 21,-24 10,-13 15,-24 13,-24 -2,0 -12,11 -21,24zm-3725 83l0 0 -24 26 26 -24c25,-22 30,-29 24,-29 -1,0 -13,12 -26,26zm-57 65l0 0 -24 26 26 -24c25,-22 30,-29 24,-29 -1,0 -13,12 -26,26zm-49 57l0 0 -24 26 26 -24c25,-22 30,-29 24,-29 -1,0 -13,12 -26,26zm3627 7l0 0c-21,19 -26,26 -12,17 22,-15 60,-51 52,-50 -2,0 -20,15 -40,33zm-3676 49l0 0 -24 26 26 -24c25,-22 30,-29 24,-29 -1,0 -13,12 -26,26zm-153 63l0 0c-7,13 -11,24 -9,24 2,0 10,-11 17,-24 7,-13 11,-24 9,-24 -2,0 -10,11 -17,24zm89 10l0 0 -24 26 26 -24c25,-22 30,-29 24,-29 -1,0 -13,12 -26,26zm3712 14l0 0c17,18 33,32 36,32 2,0 -10,-15 -28,-32 -17,-18 -33,-32 -36,-32 -2,0 10,15 28,32zm-3761 43l0 0 -24 26 26 -24c25,-22 30,-29 24,-29 -1,0 -13,12 -26,26zm-89 22l0 0c-7,13 -11,24 -9,24 2,0 10,-11 17,-24 7,-13 11,-24 9,-24 -2,0 -10,11 -17,24zm3913 65l0 0c0,20 2,28 4,18 2,-10 2,-26 0,-36 -2,-10 -4,-2 -4,18zm-3938 43l0 0 -24 26 26 -24c25,-22 30,-29 24,-29 -1,0 -13,12 -26,26zm3941 34l0 0c-3,7 -17,13 -31,15l-27 3 30 1c26,1 49,-16 37,-29 -2,-2 -5,2 -8,9zm-285 57l0 0c-31,14 -17,15 20,0 16,-6 23,-11 16,-11 -7,0 -23,5 -36,11zm-3227 221l0 0c53,1 137,1 186,0 50,-1 7,-3 -96,-3 -103,0 -143,1 -91,3zm656 0l0 0c35,2 91,2 126,0 35,-2 6,-3 -63,-3 -69,0 -97,1 -63,3zm-847 8l0 0c15,2 36,2 49,0 12,-2 0,-3 -26,-3 -27,0 -37,2 -22,3zm596 0l0 0c26,2 66,2 89,0 23,-2 2,-3 -47,-3 -49,0 -68,1 -42,3zm478 0l0 0c12,2 31,2 41,0 10,-2 0,-3 -22,-3 -22,0 -30,2 -18,4zm-1155 8l0 0c10,2 25,2 32,0 8,-2 -1,-4 -18,-4 -18,0 -24,2 -14,4zm1244 0l0 0c12,2 31,2 41,0 10,-2 0,-3 -22,-3 -22,0 -30,2 -18,4zm89 8l0 0c8,2 21,2 28,0 8,-2 1,-4 -14,-4 -16,0 -22,2 -14,4zm110 8l0 0c10,2 25,2 32,0 8,-2 -1,-4 -18,-4 -18,0 -24,2 -14,4zm-1858 83l0 0c-7,13 -11,24 -9,24 2,0 10,-11 17,-24 7,-13 11,-24 9,-24 -2,0 -10,11 -17,24zm2324 -19l0 0c8,2 21,2 28,0 8,-2 1,-4 -14,-4 -16,0 -22,2 -14,4zm136 27l0 0c-20,8 -32,15 -26,15 13,1 67,-22 67,-28 0,-2 -1,-4 -2,-4 -1,0 -18,8 -39,16zm1015 30l0 0c12,2 31,2 41,0 10,-2 0,-3 -22,-3 -22,0 -30,2 -18,4zm-1209 11l0 0c0,7 17,29 38,49l38 36 -33 -36c-18,-20 -35,-42 -38,-49 -4,-11 -4,-11 -5,0zm1157 22l0 0c-14,17 -25,34 -21,34 2,0 11,-11 21,-24 20,-26 19,-33 0,-10zm-3536 148l0 0c-7,13 -11,24 -9,24 2,0 10,-11 17,-24 7,-13 11,-24 9,-24 -2,0 -10,11 -17,24zm2573 -12l0 0c0,6 50,30 53,26 2,-2 -10,-9 -25,-17 -16,-7 -28,-12 -28,-10zm894 49l0 0c0,18 2,24 4,14 2,-10 2,-25 0,-32 -2,-8 -4,1 -4,18zm-3515 61l0 0c-7,13 -11,24 -9,24 2,0 10,-11 17,-24 7,-13 11,-24 9,-24 -2,0 -10,11 -17,24zm3009 -10l0 0c10,2 25,2 32,0 8,-2 -1,-4 -18,-4 -18,0 -24,2 -14,4zm506 71l0 0c0,18 2,24 4,14 2,-10 2,-25 0,-32 -2,-8 -4,1 -4,18zm-91 0l0 0c0,2 11,10 24,17 13,7 24,11 24,9 0,-2 -11,-10 -24,-17 -13,-7 -24,-11 -24,-9zm-3649 390l0 0c-12,24 -20,44 -18,44 5,0 46,-82 43,-86 -2,-2 -13,17 -25,41zm-50 101l0 0 -12 24 -154 2 -154 2 156 0 156 0 15 -26c8,-14 13,-26 11,-26 -3,0 -10,11 -17,24z"/>
 </g>
</svg>
