<?xml version="1.0" encoding="UTF-8" ?>
<!DOCTYPE svg PUBLIC "-//W3C//DTD SVG 1.1//EN" "http://www.w3.org/Graphics/SVG/1.1/DTD/svg11.dtd">
<svg width="855pt" height="905pt" viewBox="0 0 855 905" version="1.1" xmlns="http://www.w3.org/2000/svg">
<g id="#ffffffff">
</g>
<g id="#231f20ff">
<path fill="#231f20" opacity="1.00" d=" M 827.31 12.40 C 831.20 11.38 835.03 10.00 839.04 9.50 C 841.35 10.04 842.40 12.86 840.99 14.79 C 826.40 42.96 811.78 71.11 797.21 99.28 C 791.63 110.12 780.97 118.32 768.90 120.40 C 723.12 127.67 677.72 137.35 632.93 149.29 C 610.92 155.32 588.99 161.85 567.88 170.57 C 551.08 177.42 535.63 187.22 521.29 198.27 C 498.99 215.93 478.11 235.37 458.54 256.00 C 469.05 250.73 479.75 245.75 490.98 242.16 C 510.31 235.53 530.67 232.43 551.04 231.40 C 575.09 229.95 599.49 229.92 623.17 234.94 C 634.29 237.54 645.59 240.43 655.47 246.38 C 661.99 246.35 668.49 246.02 675.00 245.66 C 695.40 245.70 715.89 244.34 735.85 239.91 C 760.39 234.69 784.11 226.14 806.96 215.88 C 818.31 210.64 829.54 205.15 840.98 200.10 C 837.78 213.19 834.16 226.20 829.62 238.90 C 826.66 246.58 823.88 254.94 817.17 260.24 C 807.91 269.38 797.74 277.61 788.84 287.12 C 793.35 285.53 797.71 283.58 802.18 281.88 C 800.91 289.24 800.59 296.76 798.67 304.00 C 794.09 321.97 782.31 337.99 766.50 347.70 C 760.85 351.10 754.67 353.77 748.11 354.74 C 745.77 354.99 744.13 356.83 742.34 358.14 C 749.82 362.11 756.77 367.70 760.63 375.40 C 763.21 380.75 763.86 386.75 764.51 392.58 C 758.63 391.38 752.81 389.86 746.90 388.79 C 744.38 388.96 742.38 390.88 740.47 392.37 C 726.56 404.93 716.60 421.13 702.96 433.94 C 698.59 438.16 693.57 441.64 688.17 444.40 C 686.76 444.76 687.11 446.25 687.77 447.16 C 692.36 454.97 696.83 462.84 701.26 470.74 C 692.56 468.63 683.87 466.34 674.99 465.09 C 681.25 477.32 687.50 489.78 690.45 503.29 C 689.26 509.56 687.10 515.86 682.41 520.41 C 673.70 530.02 660.69 533.11 648.77 536.71 C 648.03 533.34 647.30 529.97 646.43 526.63 C 639.02 523.46 630.84 524.23 623.00 524.34 C 602.00 524.91 580.98 524.11 560.08 521.95 C 536.28 519.94 512.55 516.96 489.01 512.89 C 485.22 523.13 475.32 529.25 465.44 532.62 C 448.85 538.30 431.64 541.88 414.45 545.21 C 422.58 545.96 430.76 545.12 438.91 545.63 C 445.41 546.30 451.45 542.96 457.93 543.38 C 473.94 544.43 490.77 544.27 505.46 551.64 C 507.52 555.11 509.06 558.85 510.87 562.45 C 518.30 562.46 525.77 562.65 533.09 563.99 C 537.06 564.77 541.22 565.86 544.21 568.78 C 554.01 577.49 561.53 588.33 569.76 598.45 C 571.05 599.94 572.26 601.58 573.91 602.73 C 575.92 602.88 578.05 602.83 579.90 601.90 C 590.37 597.03 600.75 591.93 611.23 587.07 C 609.22 604.44 610.01 623.50 599.31 638.38 C 590.36 650.72 573.79 652.29 562.28 661.26 C 561.35 662.13 559.86 663.11 560.45 664.60 C 561.79 665.79 563.60 665.06 565.13 664.73 C 569.05 663.71 572.66 661.85 576.35 660.23 C 574.09 669.35 573.49 678.98 569.33 687.55 C 560.91 705.87 545.52 719.87 529.29 731.29 C 535.38 734.67 541.15 739.62 543.24 746.51 C 544.39 751.03 544.21 755.74 544.51 760.37 C 532.75 760.54 520.68 761.73 509.97 766.94 C 505.40 769.19 500.87 772.56 499.34 777.65 C 496.25 786.40 491.51 795.20 483.43 800.28 C 478.30 803.68 471.95 804.89 465.88 804.17 C 454.35 814.76 452.87 831.99 455.78 846.53 C 443.06 836.76 426.97 831.40 410.92 831.89 C 399.58 833.04 388.11 831.41 377.15 828.51 C 363.02 824.50 349.31 817.17 340.06 805.52 C 347.61 804.96 355.33 804.42 362.49 801.74 C 365.19 800.82 367.36 798.91 368.84 796.50 C 359.16 799.69 348.74 798.77 338.85 797.14 C 326.27 794.98 313.77 791.93 300.95 791.55 C 283.26 790.46 265.65 787.68 247.90 787.56 C 226.31 789.17 204.64 788.12 183.02 787.75 C 158.84 787.42 134.72 790.34 111.10 795.40 C 108.09 796.39 103.47 795.48 102.15 799.14 C 85.74 830.87 69.45 862.67 53.98 894.88 C 41.18 894.45 28.36 894.63 15.54 894.29 C 17.70 890.13 19.73 885.91 21.91 881.77 C 29.81 882.42 37.74 882.12 45.66 882.37 C 81.22 809.13 119.30 737.12 159.02 666.06 C 196.72 598.89 236.15 532.68 278.25 468.17 C 318.35 406.90 360.69 346.94 407.83 290.84 C 433.85 260.01 461.39 230.35 491.63 203.59 C 505.60 191.35 520.04 179.51 536.03 169.97 C 551.71 160.40 569.03 154.00 586.39 148.20 C 597.87 127.02 608.99 105.64 620.36 84.41 C 627.32 81.03 634.91 78.83 642.12 75.93 C 689.37 58.41 736.84 41.46 784.68 25.62 C 769.32 54.18 754.27 82.89 739.00 111.49 C 748.15 109.51 757.64 109.13 766.60 106.33 C 776.41 102.92 784.62 95.46 789.20 86.17 C 801.78 61.71 814.61 37.38 827.08 12.87 L 827.31 12.40 M 711.09 253.58 C 696.09 255.36 680.95 254.91 665.89 255.65 C 669.80 261.39 673.15 267.49 676.02 273.81 C 667.25 265.81 657.79 258.44 647.30 252.82 C 641.51 249.65 635.09 247.98 628.79 246.17 C 607.41 240.28 585.03 239.76 563.00 240.41 C 543.52 241.14 523.90 242.63 505.04 247.92 C 485.55 253.33 466.52 261.21 449.81 272.73 C 449.54 279.81 447.85 286.72 446.34 293.61 C 441.75 312.91 435.59 331.82 428.63 350.39 C 415.30 385.61 398.61 419.61 378.48 451.46 C 357.61 484.04 336.09 516.21 313.96 547.95 C 335.44 543.82 357.01 539.55 378.91 538.38 C 389.44 537.73 399.99 539.34 410.50 538.21 C 423.63 536.56 436.34 532.65 448.98 528.88 C 459.92 525.51 472.59 522.39 478.99 511.94 C 471.57 510.95 465.65 505.42 463.32 498.45 C 505.76 506.98 548.84 512.39 592.07 514.64 C 606.38 515.45 620.70 514.54 635.02 514.66 C 643.12 515.11 653.87 516.57 656.71 525.62 C 664.87 521.76 673.75 517.63 678.59 509.59 C 681.26 505.31 680.14 500.08 678.43 495.68 C 674.21 484.27 668.50 473.50 663.28 462.53 C 662.49 460.75 661.69 458.91 661.57 456.96 C 661.48 454.66 664.05 453.55 666.00 453.58 C 672.63 453.86 678.81 456.60 684.97 458.82 C 679.40 451.33 672.84 444.26 669.52 435.40 C 673.56 436.26 677.78 437.57 681.91 436.37 C 686.49 435.03 690.45 432.17 694.03 429.11 C 708.44 416.37 718.50 399.61 732.58 386.56 C 737.58 381.90 744.18 377.70 751.34 379.64 C 747.21 373.86 742.36 367.54 734.98 366.05 C 730.59 364.92 726.48 367.23 722.60 368.94 C 725.50 362.50 730.08 356.99 735.05 352.04 C 738.15 349.16 741.53 346.10 745.86 345.39 C 755.05 344.10 763.28 339.14 770.16 333.11 C 780.98 323.71 788.03 310.45 790.64 296.41 C 785.81 297.84 780.73 300.79 775.60 299.32 C 774.43 293.10 777.66 287.16 781.45 282.49 C 788.77 273.51 797.49 265.84 805.81 257.82 C 809.52 254.16 814.01 250.98 816.11 246.03 C 820.42 236.65 823.70 226.83 826.86 217.02 C 790.49 235.03 751.63 249.17 711.09 253.58 M 370.10 361.16 C 324.11 422.15 282.02 485.99 242.05 551.06 C 198.66 621.73 157.97 694.04 118.91 767.19 C 122.70 763.54 125.84 759.28 129.41 755.43 C 176.28 701.55 223.10 647.62 268.35 592.37 C 279.24 578.83 290.37 565.44 300.09 551.01 C 322.99 518.12 345.46 484.94 367.22 451.28 C 391.47 413.83 410.86 373.28 425.36 331.10 C 431.34 313.07 437.13 294.83 440.00 276.00 C 415.31 303.21 392.31 331.90 370.10 361.16 M 307.92 560.07 C 304.24 561.01 302.52 564.63 300.34 567.37 C 288.29 583.23 275.65 598.64 262.98 614.01 C 215.15 671.65 165.97 728.16 116.68 784.55 C 141.12 779.46 166.14 777.68 191.08 778.33 C 210.39 778.78 229.75 779.34 249.04 777.91 C 267.44 778.44 285.72 780.95 304.08 782.21 C 317.94 783.31 331.46 786.80 344.90 790.14 C 359.87 793.11 374.99 787.34 387.15 778.87 C 383.56 785.71 380.12 792.65 376.23 799.34 C 372.14 806.29 364.40 810.71 356.33 810.78 C 372.24 819.67 390.79 823.76 408.97 822.42 C 421.98 822.11 436.42 823.25 446.84 831.94 C 445.77 828.42 444.95 824.70 445.76 821.05 C 447.64 810.02 455.21 801.13 463.05 793.64 C 467.53 795.05 472.62 795.39 476.86 793.03 C 484.04 789.20 487.86 781.45 490.44 774.08 C 492.07 769.06 495.58 764.85 499.86 761.84 C 510.02 754.77 522.54 752.32 534.65 751.13 C 534.01 747.04 532.38 742.62 528.37 740.75 C 522.10 737.86 514.94 739.36 508.44 740.55 C 510.17 736.57 512.69 732.93 516.10 730.21 C 525.25 722.62 535.65 716.57 544.10 708.13 C 554.58 698.26 561.79 685.09 564.41 670.93 C 559.52 672.59 554.32 675.23 549.06 674.02 C 546.53 673.14 547.25 670.01 548.19 668.19 C 553.51 657.96 562.41 649.83 572.71 644.76 C 579.32 641.31 587.17 639.06 591.66 632.67 C 598.17 623.51 599.71 611.93 600.37 600.99 C 593.86 604.05 588.22 608.67 581.65 611.61 C 577.69 613.45 572.92 612.81 569.18 610.75 C 566.31 609.01 564.28 606.28 562.08 603.83 C 555.13 595.79 549.07 587.00 541.54 579.48 C 538.80 576.72 536.00 573.71 532.13 572.62 C 525.03 570.46 517.52 570.28 510.16 570.15 C 496.42 587.71 482.85 605.39 469.10 622.93 C 479.87 601.97 491.04 581.20 501.80 560.23 C 492.33 556.24 482.32 553.45 472.05 552.68 C 464.54 552.29 456.90 550.68 449.49 552.71 C 442.16 554.64 434.53 555.38 426.97 554.95 C 414.40 554.49 401.93 552.73 389.53 550.73 C 380.41 549.38 371.35 546.95 362.05 547.52 C 343.43 548.39 325.29 553.57 307.92 560.07 Z" />
<path fill="#231f20" opacity="1.00" d=" M 550.57 322.94 C 560.04 322.16 569.65 321.75 579.06 323.32 C 585.58 324.33 591.52 327.43 597.95 328.82 C 619.17 333.88 642.15 333.61 662.55 325.37 C 661.21 327.66 660.06 330.30 657.63 331.67 C 645.69 339.13 637.88 351.41 631.56 363.67 C 620.49 386.00 613.97 410.28 609.13 434.64 C 602.40 431.98 595.35 429.72 588.06 429.60 C 582.63 429.76 577.41 431.54 572.00 431.98 C 564.01 432.66 556.00 433.96 547.97 433.16 C 536.32 432.07 524.65 431.10 512.97 430.45 C 502.44 429.96 492.47 434.05 482.08 434.98 C 474.84 435.76 467.56 436.44 460.43 437.96 C 465.91 430.40 469.94 421.91 475.52 414.42 C 484.84 401.44 493.93 388.20 500.79 373.72 C 506.01 362.79 510.96 351.60 513.65 339.75 C 525.10 332.59 536.84 324.62 550.57 322.94 Z" />
<path fill="#231f20" opacity="1.00" d=" M 351.62 628.59 C 354.34 623.96 360.20 623.49 365.01 623.21 C 375.11 622.90 385.31 623.78 395.07 626.47 C 411.45 630.46 428.41 629.00 445.03 627.86 C 451.90 627.34 458.84 627.50 465.58 629.00 C 461.91 635.80 458.47 642.73 454.74 649.50 C 458.18 649.46 461.68 649.40 465.05 650.24 C 470.30 651.45 474.81 654.60 479.92 656.21 C 486.08 658.30 492.67 658.47 499.11 658.29 C 493.09 663.57 487.39 669.21 481.91 675.06 C 474.66 682.69 469.46 691.93 463.61 700.61 C 454.26 715.43 444.46 730.07 437.10 746.02 C 427.12 740.24 416.95 734.79 406.94 729.05 C 403.07 726.75 398.60 725.91 394.34 724.67 C 390.23 723.56 386.20 722.09 381.95 721.63 C 358.29 719.16 334.64 716.65 310.94 714.62 C 301.27 713.81 291.56 714.43 281.87 714.18 C 295.41 698.35 310.29 683.71 323.90 667.94 C 334.58 655.88 342.53 641.81 351.62 628.59 Z" />
</g>
<g id="#b2b7bbff">
<path fill="#b2b7bb" opacity="1.00" d=" M 815.90 15.74 C 819.56 14.54 823.27 13.49 827.08 12.87 C 814.61 37.38 801.78 61.71 789.20 86.17 C 784.62 95.46 776.41 102.92 766.60 106.33 C 757.64 109.13 748.15 109.51 739.00 111.49 C 754.27 82.89 769.32 54.18 784.68 25.62 C 795.07 22.28 805.47 18.97 815.90 15.74 Z" />
<path fill="#b2b7bb" opacity="1.00" d=" M 600.05 92.01 C 606.82 89.49 613.41 86.45 620.36 84.41 C 608.99 105.64 597.87 127.02 586.39 148.20 C 569.03 154.00 551.71 160.40 536.03 169.97 C 520.04 179.51 505.60 191.35 491.63 203.59 C 461.39 230.35 433.85 260.01 407.83 290.84 C 360.69 346.94 318.35 406.90 278.25 468.17 C 236.15 532.68 196.72 598.89 159.02 666.06 C 119.30 737.12 81.22 809.13 45.66 882.37 C 37.74 882.12 29.81 882.42 21.91 881.77 C 57.40 811.42 94.67 741.98 133.22 673.27 C 171.96 604.35 212.15 536.24 254.42 469.42 C 298.57 399.83 344.82 331.45 395.64 266.52 C 423.94 230.51 453.69 195.55 486.21 163.28 C 496.83 152.84 507.90 142.88 518.85 132.79 C 527.15 125.49 536.04 118.58 546.26 114.16 C 563.96 106.24 582.03 99.18 600.05 92.01 Z" />
</g>
<g id="#e51937ff">
<path fill="#e51937" opacity="1.00" d=" M 711.09 253.58 C 751.63 249.17 790.49 235.03 826.86 217.02 C 823.70 226.83 820.42 236.65 816.11 246.03 C 814.01 250.98 809.52 254.16 805.81 257.82 C 797.49 265.84 788.77 273.51 781.45 282.49 C 777.66 287.16 774.43 293.10 775.60 299.32 C 780.73 300.79 785.81 297.84 790.64 296.41 C 788.03 310.45 780.98 323.71 770.16 333.11 C 763.28 339.14 755.05 344.10 745.86 345.39 C 741.53 346.10 738.15 349.16 735.05 352.04 C 730.08 356.99 725.50 362.50 722.60 368.94 C 726.48 367.23 730.59 364.92 734.98 366.05 C 742.36 367.54 747.21 373.86 751.34 379.64 C 744.18 377.70 737.58 381.90 732.58 386.56 C 718.50 399.61 708.44 416.37 694.03 429.11 C 690.45 432.17 686.49 435.03 681.91 436.37 C 677.78 437.57 673.56 436.26 669.52 435.40 C 672.84 444.26 679.40 451.33 684.97 458.82 C 678.81 456.60 672.63 453.86 666.00 453.58 C 664.05 453.55 661.48 454.66 661.57 456.96 C 661.69 458.91 662.49 460.75 663.28 462.53 C 668.50 473.50 674.21 484.27 678.43 495.68 C 680.14 500.08 681.26 505.31 678.59 509.59 C 673.75 517.63 664.87 521.76 656.71 525.62 C 653.87 516.57 643.12 515.11 635.02 514.66 C 620.70 514.54 606.38 515.45 592.07 514.64 C 548.84 512.39 505.76 506.98 463.32 498.45 C 465.65 505.42 471.57 510.95 478.99 511.94 C 472.59 522.39 459.92 525.51 448.98 528.88 C 436.34 532.65 423.63 536.56 410.50 538.21 C 399.99 539.34 389.44 537.73 378.91 538.38 C 357.01 539.55 335.44 543.82 313.96 547.95 C 336.09 516.21 357.61 484.04 378.48 451.46 C 398.61 419.61 415.30 385.61 428.63 350.39 C 435.59 331.82 441.75 312.91 446.34 293.61 C 447.85 286.72 449.54 279.81 449.81 272.73 C 466.52 261.21 485.55 253.33 505.04 247.92 C 523.90 242.63 543.52 241.14 563.00 240.41 C 585.03 239.76 607.41 240.28 628.79 246.17 C 635.09 247.98 641.51 249.65 647.30 252.82 C 657.79 258.44 667.25 265.81 676.02 273.81 C 673.15 267.49 669.80 261.39 665.89 255.65 C 680.95 254.91 696.09 255.36 711.09 253.58 M 550.57 322.94 C 536.84 324.62 525.10 332.59 513.65 339.75 C 510.96 351.60 506.01 362.79 500.79 373.72 C 493.93 388.20 484.84 401.44 475.52 414.42 C 469.94 421.91 465.91 430.40 460.43 437.96 C 467.56 436.44 474.84 435.76 482.08 434.98 C 492.47 434.05 502.44 429.96 512.97 430.45 C 524.65 431.10 536.32 432.07 547.97 433.16 C 556.00 433.96 564.01 432.66 572.00 431.98 C 577.41 431.54 582.63 429.76 588.06 429.60 C 595.35 429.72 602.40 431.98 609.13 434.64 C 613.97 410.28 620.49 386.00 631.56 363.67 C 637.88 351.41 645.69 339.13 657.63 331.67 C 660.06 330.30 661.21 327.66 662.55 325.37 C 642.15 333.61 619.17 333.88 597.95 328.82 C 591.52 327.43 585.58 324.33 579.06 323.32 C 569.65 321.75 560.04 322.16 550.57 322.94 Z" />
<path fill="#e51937" opacity="1.00" d=" M 307.92 560.07 C 325.29 553.57 343.43 548.39 362.05 547.52 C 371.35 546.95 380.41 549.38 389.53 550.73 C 401.93 552.73 414.40 554.49 426.97 554.95 C 434.53 555.38 442.16 554.64 449.49 552.71 C 456.90 550.68 464.54 552.29 472.05 552.68 C 482.32 553.45 492.33 556.24 501.80 560.23 C 491.04 581.20 479.87 601.97 469.10 622.93 C 482.85 605.39 496.42 587.71 510.16 570.15 C 517.52 570.28 525.03 570.46 532.13 572.62 C 536.00 573.71 538.80 576.72 541.54 579.48 C 549.07 587.00 555.13 595.79 562.08 603.83 C 564.28 606.28 566.31 609.01 569.18 610.75 C 572.92 612.81 577.69 613.45 581.65 611.61 C 588.22 608.67 593.86 604.05 600.37 600.99 C 599.71 611.93 598.17 623.51 591.66 632.67 C 587.17 639.06 579.32 641.31 572.71 644.76 C 562.41 649.83 553.51 657.96 548.19 668.19 C 547.25 670.01 546.53 673.14 549.06 674.02 C 554.32 675.23 559.52 672.59 564.41 670.93 C 561.79 685.09 554.58 698.26 544.10 708.13 C 535.65 716.57 525.25 722.62 516.10 730.21 C 512.69 732.93 510.17 736.57 508.44 740.55 C 514.94 739.36 522.10 737.86 528.37 740.75 C 532.38 742.62 534.01 747.04 534.65 751.13 C 522.54 752.32 510.02 754.77 499.86 761.84 C 495.58 764.85 492.07 769.06 490.44 774.08 C 487.86 781.45 484.04 789.20 476.86 793.03 C 472.62 795.39 467.53 795.05 463.05 793.64 C 455.21 801.13 447.64 810.02 445.76 821.05 C 444.95 824.70 445.77 828.42 446.84 831.94 C 436.42 823.25 421.98 822.11 408.97 822.42 C 390.79 823.76 372.24 819.67 356.33 810.78 C 364.40 810.71 372.14 806.29 376.23 799.34 C 380.12 792.65 383.56 785.71 387.15 778.87 C 374.99 787.34 359.87 793.11 344.90 790.14 C 331.46 786.80 317.94 783.31 304.08 782.21 C 285.72 780.95 267.44 778.44 249.04 777.91 C 229.75 779.34 210.39 778.78 191.08 778.33 C 166.14 777.68 141.12 779.46 116.68 784.55 C 165.97 728.16 215.15 671.65 262.98 614.01 C 275.65 598.64 288.29 583.23 300.34 567.37 C 302.52 564.63 304.24 561.01 307.92 560.07 M 351.62 628.59 C 342.53 641.81 334.58 655.88 323.90 667.94 C 310.29 683.71 295.41 698.35 281.87 714.18 C 291.56 714.43 301.27 713.81 310.94 714.62 C 334.64 716.65 358.29 719.16 381.95 721.63 C 386.20 722.09 390.23 723.56 394.34 724.67 C 398.60 725.91 403.07 726.75 406.94 729.05 C 416.95 734.79 427.12 740.24 437.10 746.02 C 444.46 730.07 454.26 715.43 463.61 700.61 C 469.46 691.93 474.66 682.69 481.91 675.06 C 487.39 669.21 493.09 663.57 499.11 658.29 C 492.67 658.47 486.08 658.30 479.92 656.21 C 474.81 654.60 470.30 651.45 465.05 650.24 C 461.68 649.40 458.18 649.46 454.74 649.50 C 458.47 642.73 461.91 635.80 465.58 629.00 C 458.84 627.50 451.90 627.34 445.03 627.86 C 428.41 629.00 411.45 630.46 395.07 626.47 C 385.31 623.78 375.11 622.90 365.01 623.21 C 360.20 623.49 354.34 623.96 351.62 628.59 Z" />
</g>
</svg>
