<?xml version="1.0" encoding="UTF-8" standalone="no"?>
<svg
   viewBox="0 0 299.99051 130.24783"
   version="1.1"
   id="svg19"
   sodipodi:docname="philips-hue-simple.svg"
   width="299.99051"
   height="130.24783"
   inkscape:version="1.4.1-rc (06eac75fbf, 2025-03-29)"
   xmlns:inkscape="http://www.inkscape.org/namespaces/inkscape"
   xmlns:sodipodi="http://sodipodi.sourceforge.net/DTD/sodipodi-0.dtd"
   xmlns="http://www.w3.org/2000/svg"
   xmlns:svg="http://www.w3.org/2000/svg">
  <defs
     id="defs19" />
  <sodipodi:namedview
     id="namedview19"
     pagecolor="#505050"
     bordercolor="#ffffff"
     borderopacity="1"
     inkscape:showpageshadow="0"
     inkscape:pageopacity="0"
     inkscape:pagecheckerboard="1"
     inkscape:deskcolor="#505050"
     inkscape:zoom="2.5903226"
     inkscape:cx="150.17435"
     inkscape:cy="78.947696"
     inkscape:window-width="1920"
     inkscape:window-height="1011"
     inkscape:window-x="3000"
     inkscape:window-y="331"
     inkscape:window-maximized="1"
     inkscape:current-layer="svg19" />
  <path
     fill="#ed2c22"
     d="m 31.965715,37.681672 q 0.91,1.76 0.29,5 -0.47,2.48 2.25,3.54 c -14.62,3.85 -21.54,17.45 -21.66,31.44 a 0.37,0.38 1.5 0 1 -0.38,0.37 l -11.89000071,-0.14 a 0.54,0.54 0 0 1 -0.53,-0.54 q -0.08,-34.87 -0.02,-69.6599997 c 0.01,-10.4699995 12.69000071,-10.2999995 12.71000071,0.81 q 0.04,23.2699997 0.02,46.5299997 a 0.34,0.33 78.1 0 0 0.47,0.31 q 0.21,-0.09 0.33,-0.35 5.51,-12.58 18.41,-17.31 z"
     id="path9"
     style="fill:#000000" />
  <path
     fill="#148fa2"
     d="m 234.75572,87.641672 q 1.78,-0.14 1.77,-2.28 -0.02,-2.94 -0.07,-5.88 a 0.29,0.3 0 0 1 0.29,-0.3 h 0.47 q 0.16,0 0.05,-0.12 l -0.24,-0.24 q -0.5,-0.48 0.2,-0.46 l 2.29,0.07 q 0.49,0.01 0.08,-0.25 l -0.34,-0.21 48.05,0.01 a 0.53,0.53 0 0 0 0.53,-0.5 c 1.67,-28.2 -26.42,-40.96 -48.58,-26.51 q -1.16,-5.72 -0.54,-11.54 c 29.03,-12.48 59.34,2.87 61.04,36.14 0.25,4.94 1.49,11.86 -5.82,11.92 q -29.58,0.25 -59.18,0.15 z"
     id="path10"
     style="fill:#000000" />
  <path
     fill="#f57e1e"
     d="m 34.505715,46.221672 q -2.72,-1.06 -2.25,-3.54 0.62,-3.24 -0.29,-5 15.41,-5.21 29.24,0.79 c 14.49,6.3 19.33,24.23 18.18,39.07 a 0.59,0.59 0 0 1 -0.59,0.55 h -11.27 a 1.08,1.09 1.5 0 1 -1.08,-1.15 c 1.16,-20.89 -9.22,-34.58 -31.94,-30.72 z"
     id="path11"
     style="fill:#000000" />
  <path
     fill="#f9ae19"
     d="m 106.92572,39.571672 c 2.81,-5.78 12.24,-3.48 12.28,3.43 q 0.11,17.19 0.02,34.42 a 0.51,0.51 0 0 1 -0.51,0.51 h -11.93 a 0.51,0.51 0 0 1 -0.51,-0.51 q -0.04,-16.52 -0.02,-33.01 0.01,-3.49 0.67,-4.84 z"
     id="path12"
     style="fill:#000000" />
  <path
     fill="#93c33b"
     d="m 183.36572,37.701672 q 2.06,1.76 2.11,4.3 0.33,17.69 0.25,35.42 a 0.51,0.51 0 0 1 -0.51,0.51 h -11.93 a 0.51,0.51 0 0 1 -0.51,-0.51 q -0.04,-15.59 -0.02,-31.16 c 0.01,-5.74 0.69,-10.32 7.56,-9.82 q 1.73,0.13 3.05,1.26 z"
     id="path13"
     style="fill:#000000" />
  <path
     fill="#46b37c"
     d="m 238.71572,39.431672 q -0.62,5.82 0.54,11.54 -12.57,10.08 -13.54,26.27 a 0.48,0.49 1.7 0 0 0.48,0.52 l 13.06,0.21 0.34,0.21 q 0.41,0.26 -0.08,0.25 l -2.29,-0.07 q -0.7,-0.02 -0.2,0.46 l 0.24,0.24 q 0.11,0.12 -0.05,0.12 h -0.47 a 0.29,0.3 0 0 0 -0.29,0.3 q 0.05,2.94 0.07,5.88 0.01,2.14 -1.77,2.28 l -8.68,0.08 a 0.5,0.5 0 0 0 -0.49,0.52 q 0.78,15.609998 12.53,25.159998 -1.39,5.78 -1.45,11.82 -22.24,-11.49 -24.19,-36.939998 a 0.57,0.56 88.9 0 0 -0.54,-0.52 c -4.21,-0.19 -14.38,1.47 -12.64,-6.33 1.07,-4.82 8.91,-3.47 12.63,-3.6 a 0.58,0.58 0 0 0 0.55,-0.52 c 1.49,-16.35 10.74,-31.48 26.24,-37.88 z"
     id="path14"
     style="fill:#000000" />
  <path
     fill="#e6b320"
     d="m 168.79572,106.43167 1.23,0.1 a 0.92,0.92 0 0 1 0.73,0.44 q 1.66,2.66 1.67,5.66 c -8.37,15.53 -23.44,19.56 -39.91,16.82 -21.09,-3.52 -27.35,-22.31 -26.27,-41.209998 a 0.62,0.62 0 0 1 0.61,-0.59 l 11.16,-0.15 a 1.32,1.33 1.4 0 1 1.34,1.41 c -0.91,15.179998 3.69,27.869998 20.09,30.849998 q 18.57,3.37 29.35,-13.33 z"
     id="path15"
     style="fill:#000000" />
  <path
     fill="#ed2c22"
     d="m 2.0757143,127.72167 q -2.07000001,-1.54 -2.07000001,-4.11 V 88.091672 a 0.4,0.4 0 0 1 0.4,-0.4 l 11.74000071,-0.01 a 0.55,0.55 0 0 1 0.55,0.54 q 0.14,16.499998 0.03,32.919998 c -0.04,6.25 -4.5900004,11.09 -10.6500007,6.58 z"
     id="path16"
     style="fill:#000000" />
  <path
     fill="#f57e1e"
     d="m 79.625715,121.26167 c -0.2,11.13 -12.97,10.35 -13.04,0.47 q -0.14,-21.950002 0,-33.519998 a 0.54,0.53 0 0 1 0.54,-0.53 h 12.01 a 0.53,0.53 0 0 1 0.53,0.52 q 0.26,16.569998 -0.04,33.059998 z"
     id="path17"
     style="fill:#000000" />
  <path
     fill="#93c33b"
     d="m 172.42572,112.63167 q -0.01,-3 -1.67,-5.66 a 0.92,0.92 0 0 0 -0.73,-0.44 l -1.23,-0.1 q 4.46,-8.400002 3.96,-18.119998 a 0.6,0.6 0 0 1 0.6,-0.63 h 11.85 a 0.6,0.6 0 0 1 0.6,0.61 q -0.11,16.139998 -0.03,32.239998 c 0.03,6.43 -2.49,10.62 -9.65,8.16 q -2.75,-0.94 -2.93,-3.85 z"
     id="path18"
     style="fill:#000000" />
  <path
     fill="#1a9a9f"
     d="m 238.11572,113.40167 c 9.89,6.43 21.09,8.06 32.55,6.64 5.53,-0.69 11.23,-2.67 16.69,-4.6 q 1.79,-0.63 3.61,-0.12 c 5.49,1.53 3.11,7.94 -1.52,9.85 -15.68,6.48 -36.99,7.33 -52.78,0.05 q 0.06,-6.04 1.45,-11.82 z"
     id="path19"
     style="fill:#000000" />
</svg>
